<mxfile host="app.diagrams.net" modified="2024-05-16T16:27:23.378Z" agent="Mozilla/5.0 (Macintosh; Intel Mac OS X 10_15_7) AppleWebKit/537.36 (KHTML, like Gecko) Chrome/124.0.0.0 Safari/537.36" etag="_lYiyxsrnobtNZ4txUUL" version="24.4.3" type="github">
  <diagram id="R2lEEEUBdFMjLlhIrx00" name="Page-1">
    <mxGraphModel dx="724" dy="441" grid="1" gridSize="10" guides="1" tooltips="1" connect="1" arrows="1" fold="1" page="1" pageScale="1" pageWidth="850" pageHeight="1100" math="0" shadow="0" extFonts="Permanent Marker^https://fonts.googleapis.com/css?family=Permanent+Marker">
      <root>
        <mxCell id="0" />
        <mxCell id="1" parent="0" />
        <mxCell id="xW6vxqvG4x_OU7LfNKG0-8" style="edgeStyle=orthogonalEdgeStyle;rounded=0;orthogonalLoop=1;jettySize=auto;html=1;exitX=0;exitY=1;exitDx=0;exitDy=0;entryX=0.5;entryY=0;entryDx=0;entryDy=0;curved=1;" edge="1" parent="1" source="xW6vxqvG4x_OU7LfNKG0-1" target="xW6vxqvG4x_OU7LfNKG0-2">
          <mxGeometry relative="1" as="geometry" />
        </mxCell>
        <mxCell id="xW6vxqvG4x_OU7LfNKG0-9" style="edgeStyle=orthogonalEdgeStyle;rounded=0;orthogonalLoop=1;jettySize=auto;html=1;exitX=0.5;exitY=1;exitDx=0;exitDy=0;entryX=0.5;entryY=0;entryDx=0;entryDy=0;" edge="1" parent="1" source="xW6vxqvG4x_OU7LfNKG0-1" target="xW6vxqvG4x_OU7LfNKG0-5">
          <mxGeometry relative="1" as="geometry" />
        </mxCell>
        <mxCell id="xW6vxqvG4x_OU7LfNKG0-10" style="edgeStyle=orthogonalEdgeStyle;rounded=0;orthogonalLoop=1;jettySize=auto;html=1;exitX=1;exitY=1;exitDx=0;exitDy=0;entryX=0.5;entryY=0;entryDx=0;entryDy=0;curved=1;" edge="1" parent="1" source="xW6vxqvG4x_OU7LfNKG0-1" target="xW6vxqvG4x_OU7LfNKG0-6">
          <mxGeometry relative="1" as="geometry" />
        </mxCell>
        <mxCell id="xW6vxqvG4x_OU7LfNKG0-1" value="ncRNA" style="ellipse;whiteSpace=wrap;html=1;" vertex="1" parent="1">
          <mxGeometry x="320" y="220" width="100" height="50" as="geometry" />
        </mxCell>
        <mxCell id="xW6vxqvG4x_OU7LfNKG0-2" value="miRNA" style="ellipse;whiteSpace=wrap;html=1;" vertex="1" parent="1">
          <mxGeometry x="190" y="320" width="80" height="40" as="geometry" />
        </mxCell>
        <mxCell id="xW6vxqvG4x_OU7LfNKG0-5" value="siRNA" style="ellipse;whiteSpace=wrap;html=1;" vertex="1" parent="1">
          <mxGeometry x="330" y="360" width="80" height="40" as="geometry" />
        </mxCell>
        <mxCell id="xW6vxqvG4x_OU7LfNKG0-6" value="lncRNA" style="ellipse;whiteSpace=wrap;html=1;" vertex="1" parent="1">
          <mxGeometry x="470" y="320" width="80" height="40" as="geometry" />
        </mxCell>
      </root>
    </mxGraphModel>
  </diagram>
</mxfile>
